PathFileType	4	(X/Y/Z)	2.trc
DataRate	CameraRate	NumFrames	NumMarkers	Units	OrigDataRate	OrigDataStartFrame	OrigNumFrames
147	147	4	50	mm	147	562	1496
Frame#	Time	L_IAS			R_IAS			L_TH1			L_TH2			L_TH3			L_TH4			L_FLE			L_FME			L_SK1			L_SK2			L_SK3			L_SK4			L_FAL			L_TAM			L_FCC			L_FM1			L_FM2			L_FM5			R_TH1			R_TH2			R_TH3			R_TH4			R_FLE			R_FME			R_SK2			R_SK1			R_SK3			R_SK4			R_FAL			R_TAM			R_FCC			R_FM1			R_FM2			R_FM5			R_IPS			L_IPS			CV7			L_SIA			R_SIA			TV10			L_SAE			R_SAE			L_ARM			R_ARM			L_HLE			R_HLE			L_RSP			L_USP			R_RSP			R_USP		
		X1	Y1	Z1	X2	Y2	Z2	X3	Y3	Z3	X4	Y4	Z4	X5	Y5	Z5	X6	Y6	Z6	X7	Y7	Z7	X8	Y8	Z8	X9	Y9	Z9	X10	Y10	Z10	X11	Y11	Z11	X12	Y12	Z12	X13	Y13	Z13	X14	Y14	Z14	X15	Y15	Z15	X16	Y16	Z16	X17	Y17	Z17	X18	Y18	Z18	X19	Y19	Z19	X20	Y20	Z20	X21	Y21	Z21	X22	Y22	Z22	X23	Y23	Z23	X24	Y24	Z24	X25	Y25	Z25	X26	Y26	Z26	X27	Y27	Z27	X28	Y28	Z28	X29	Y29	Z29	X30	Y30	Z30	X31	Y31	Z31	X32	Y32	Z32	X33	Y33	Z33	X34	Y34	Z34	X35	Y35	Z35	X36	Y36	Z36	X37	Y37	Z37	X38	Y38	Z38	X39	Y39	Z39	X40	Y40	Z40	X41	Y41	Z41	X42	Y42	Z42	X43	Y43	Z43	X44	Y44	Z44	X45	Y45	Z45	X46	Y46	Z46	X47	Y47	Z47	X48	Y48	Z48	X49	Y49	Z49	X50	Y50	Z50

562	3.816327	15.854182	483.083837	-435.434104	115.442274	426.136953	-187.419994	123.055038	455.385741	-529.389140	104.988891	420.537732	-547.582707	169.545448	406.941484	-576.281735	188.564064	442.001312	-557.340945	252.967762	347.252358	-583.531204	296.751974	326.217450	-469.628403	249.107670	252.385489	-592.010522	210.830654	274.019617	-597.292502	172.675141	209.725373	-591.962307	210.575452	188.638998	-585.088793	64.992769	26.113911	-519.552480	98.777823	44.384637	-439.159135	-15.710372	-5.347168	-464.309141	193.605157	-12.471694	-461.365771	200.965622	-3.422732	-506.164715	153.958197	-27.146831	-567.663869	266.374758	379.178613	-63.063010	289.606079	408.224029	-86.561602	349.541667	363.765686	-85.495195	336.918834	325.880571	-63.202495	328.763559	291.966916	-79.632494	352.692998	289.691531	-211.817950	299.891790	218.268036	-80.698289	268.388235	251.656759	-79.885516	249.538278	166.678477	-92.251623	216.723846	197.937394	-89.927027	62.790807	48.605379	-166.151012	115.595714	35.016480	-241.557663	-0.709168	17.095606	-240.296323	188.935143	-22.347887	-163.056897	175.447061	3.419261	-118.244459	125.321723	0.300445	-84.798155	-39.746873	525.069461	-200.915889	-68.656440	541.617756	-289.392186	368.913603	805.957690	-293.073078	202.896646	755.345536	-328.143132	299.272901	669.817469	-179.819573	159.734547	676.598141	-264.941614	352.860969	814.308244	-473.697886	481.944057	734.821373	-247.112076	196.092023	867.452525	-480.984834	587.435080	641.701996	-294.363607	58.413789	903.000880	-425.693101	669.952452	590.625242	-425.620174	-171.748058	882.682423	-348.941096	-169.096294	925.879108	-397.964498	508.893252	752.244722	-521.687530	567.872823	770.978271	-549.369168
563	3.823129	16.365807	483.907249	-435.568455	115.306887	426.934645	-187.424154	123.645602	455.914627	-529.435707	105.488570	421.179079	-547.686349	169.988364	407.413985	-576.406187	189.147415	442.421968	-557.460807	253.213304	347.439468	-583.691529	296.894568	326.286031	-469.822844	249.206424	252.544839	-592.206567	210.934860	274.222629	-597.466560	172.731746	209.958385	-592.183722	210.620392	188.835609	-585.333928	65.006251	26.250558	-519.733785	98.763237	44.629106	-439.378117	-15.724564	-5.066953	-464.505205	193.596340	-12.433632	-461.415129	200.962276	-3.448228	-506.241466	153.950318	-27.185336	-567.721262	266.082869	379.581005	-62.945385	289.357549	408.575279	-86.447442	349.216481	364.017999	-85.339125	336.497143	326.163030	-63.058747	328.378867	292.264766	-79.383164	352.367905	289.881136	-211.650416	299.533586	218.416288	-80.518042	268.023904	251.797616	-79.700390	249.192316	166.811634	-92.060577	216.367743	198.062482	-89.726889	62.627405	48.438445	-166.001748	115.452248	35.034722	-241.413354	-0.830779	16.949523	-240.169223	188.946514	-22.320770	-163.035200	175.404061	3.364022	-118.167607	125.291431	0.131624	-84.728669	-39.744355	526.218471	-201.100368	-68.363040	542.579897	-289.705266	370.275312	806.257802	-293.203587	203.989268	756.351019	-327.980212	300.086380	670.091420	-180.074820	160.235606	677.498454	-264.942685	353.918816	815.268583	-473.381131	482.744494	734.269232	-247.922685	197.825787	869.906562	-480.191865	587.970104	640.935934	-295.078507	60.762596	906.681043	-424.557272	670.360617	589.096145	-426.071884	-170.096144	888.601949	-349.275165	-166.410753	933.180531	-396.934257	513.045276	751.534714	-526.420756	572.618933	769.138698	-553.424267
564	3.829932	16.962032	484.662648	-435.742542	115.127761	427.701669	-187.416224	124.312067	456.397329	-529.479551	106.069304	421.782209	-547.800793	170.519086	407.849577	-576.522790	189.817527	442.803665	-557.567404	253.547632	347.593676	-583.828370	297.101047	326.317149	-469.979912	249.368160	252.680191	-592.375130	211.109470	274.408304	-597.617173	172.847360	210.181153	-592.389337	210.720489	189.013669	-585.561031	65.029820	26.398479	-519.909473	98.758246	44.872472	-439.585737	-15.733370	-4.769802	-464.701503	193.590585	-12.401258	-461.461829	200.963152	-3.480415	-506.312579	153.948677	-27.225358	-567.778799	265.689697	379.971944	-62.759784	289.017637	408.925490	-86.249190	348.807451	364.279015	-85.077960	335.992198	326.453915	-62.814441	327.919007	292.568482	-79.036323	352.053088	290.098135	-211.378001	299.121891	218.558789	-80.253968	267.602425	251.928572	-79.435361	248.801629	166.934829	-91.803055	215.962967	198.172072	-89.464237	62.448532	48.252705	-165.840392	115.299114	35.062596	-241.255808	-0.956308	16.793281	-240.039070	188.955492	-22.290783	-163.008310	175.354649	3.303689	-118.079742	125.251505	-0.054965	-84.652588	-39.764617	527.313313	-201.359172	-68.049979	543.476378	-290.105327	371.605023	806.483015	-293.339446	205.060406	757.256083	-327.876081	300.843331	670.314418	-180.300375	160.728994	678.321829	-264.982832	355.014081	816.103944	-473.097697	483.550386	733.591939	-248.658218	199.578297	872.141410	-479.530510	588.480825	639.971111	-295.652001	63.095940	910.063336	-423.638549	670.782635	587.274972	-426.308096	-168.426453	894.063115	-349.984635	-163.702218	939.975924	-396.235092	517.589419	750.409016	-531.416478	577.795036	766.778686	-557.675861
565	3.836735	17.645646	485.354436	-435.958812	114.901438	428.442379	-187.395656	125.054553	456.835282	-529.529054	106.730177	422.347843	-547.933027	171.136450	408.246694	-576.638781	190.573221	443.144605	-557.669011	253.968610	347.711294	-583.949251	297.369387	326.308273	-470.108437	249.589970	252.787796	-592.521658	211.352378	274.572326	-597.750449	173.020332	210.389006	-592.582914	210.874177	189.168907	-585.773711	65.062308	26.555686	-520.078362	98.762414	45.113397	-439.780951	-15.737018	-4.458642	-464.895794	193.587585	-12.374453	-461.505931	200.968095	-3.518898	-506.377565	153.952865	-27.266787	-567.836351	265.187018	380.352798	-62.501289	288.579408	409.276385	-85.960508	348.307222	364.549863	-84.705029	335.396067	326.754141	-62.463967	327.376581	292.879407	-78.587881	351.744975	290.346917	-210.994269	298.651453	218.696614	-79.902330	267.118204	252.050539	-79.086758	248.361050	167.049087	-91.475578	215.504435	198.267086	-89.135901	62.252765	48.047353	-165.666717	115.135503	35.100424	-241.084629	-1.086130	16.624534	-239.906266	188.960476	-22.258043	-162.976291	175.297596	3.238406	-117.980794	125.200390	-0.259556	-84.569854	-39.807764	528.359960	-201.694505	-67.716473	544.315305	-290.593601	372.900317	806.635798	-293.481539	206.111859	758.061245	-327.833237	301.543899	670.492553	-180.492983	161.216218	679.071274	-265.064171	356.148733	816.811622	-472.853739	484.364534	732.786661	-249.310921	201.346186	874.153277	-479.006827	588.960623	638.797686	-296.081612	65.409712	913.134209	-422.943347	671.210280	585.156908	-426.333340	-166.734961	899.047356	-351.060255	-160.976478	946.233188	-395.873986	522.550517	748.842941	-536.662873	583.420414	763.868453	-562.105355
